<svg width="25" height="24" viewBox="0 0 25 24" fill="none" xmlns="http://www.w3.org/2000/svg">
<g id="Menu Icons">
<g id="Vector">
<path d="M18.961 3.69232L18.961 20.3077C18.9606 20.7972 18.7659 21.2665 18.4198 21.6126C18.0737 21.9587 17.6044 22.1534 17.1149 22.1539L13.4226 22.1539C12.9331 22.1534 12.4638 21.9587 12.1177 21.6126C11.7716 21.2665 11.5769 20.7972 11.5764 20.3077L11.5764 3.69232C11.5769 3.20284 11.7716 2.73354 12.1177 2.38743C12.4638 2.04131 12.9331 1.84665 13.4226 1.84616L17.1149 1.84616C17.6044 1.84665 18.0737 2.04131 18.4198 2.38743C18.7659 2.73354 18.9606 3.20284 18.961 3.69232ZM13.4226 20.3077L17.1149 20.3077L17.1149 3.69232L13.4226 3.69232L13.4226 20.3077ZM13.4226 3.69232L13.4226 20.3077C13.4221 20.7972 13.2274 21.2665 12.8813 21.6126C12.5352 21.9587 12.0659 22.1533 11.5764 22.1538L7.88413 22.1538C7.39465 22.1533 6.92535 21.9587 6.57924 21.6126C6.23312 21.2665 6.03846 20.7972 6.03797 20.3077L6.03797 3.6923C6.03846 3.20282 6.23312 2.73353 6.57924 2.38741C6.92535 2.0413 7.39465 1.84663 7.88413 1.84615L11.5764 1.84615C12.0659 1.84663 12.5352 2.0413 12.8813 2.38741C13.2274 2.73353 13.4221 3.20284 13.4226 3.69232ZM7.88413 20.3077L11.5764 20.3077L11.5764 3.69232L7.88413 3.6923L7.88413 20.3077ZM7.88413 3.6923L7.88413 20.3077C7.88364 20.7972 7.68898 21.2665 7.34286 21.6126C6.99675 21.9587 6.52745 22.1533 6.03797 22.1538L2.34567 22.1538C1.85618 22.1533 1.38689 21.9587 1.04078 21.6126C0.694662 21.2665 0.5 20.7972 0.499512 20.3077L0.499511 3.6923C0.5 3.20282 0.694661 2.73353 1.04078 2.38741C1.38689 2.0413 1.85618 1.84663 2.34566 1.84615L6.03797 1.84615C6.52745 1.84663 6.99675 2.0413 7.34286 2.38741C7.68898 2.73353 7.88364 3.20282 7.88413 3.6923ZM2.34567 20.3077L6.03797 20.3077L6.03797 3.6923L2.34566 3.6923L2.34567 20.3077Z" fill="#4589FF"/>
<path d="M24.4995 3.69252L24.4995 20.3079C24.499 20.7974 24.3044 21.2667 23.9582 21.6128C23.6121 21.9589 23.1428 22.1536 22.6534 22.1541L18.9611 22.1541C18.4716 22.1536 18.0023 21.9589 17.6562 21.6128C17.31 21.2667 17.1154 20.7972 17.1149 20.3077L17.1149 3.69232C17.1154 3.20284 17.31 2.73375 17.6562 2.38763C18.0023 2.04152 18.4716 1.84686 18.961 1.84637L22.6534 1.84637C23.1428 1.84686 23.6121 2.04152 23.9582 2.38763C24.3044 2.73375 24.499 3.20304 24.4995 3.69252ZM18.961 20.3077L22.6534 20.3079L22.6534 3.69252L18.961 3.69232L18.961 20.3077Z" fill="#4589FF"/>
</g>
</g>
</svg>
