<svg width="30" height="31" viewBox="0 0 30 31" fill="none" xmlns="http://www.w3.org/2000/svg">
<path d="M9.58333 23.8029H20.4167V23.5279C19.6583 22.8863 18.8188 22.4052 17.8979 22.0847C16.9771 21.7635 16.0111 21.6029 15 21.6029C13.9889 21.6029 13.0229 21.7635 12.1021 22.0847C11.1813 22.4052 10.3417 22.8863 9.58333 23.5279V23.8029ZM7.41667 22.5379C8.39167 21.5663 9.52483 20.8007 10.8162 20.2411C12.1068 19.6823 13.5014 19.4029 15 19.4029C16.4986 19.4029 17.8936 19.6823 19.1849 20.2411C20.4755 20.8007 21.6083 21.5663 22.5833 22.5379V8.40293H7.41667V22.5379ZM15 17.2029C13.9528 17.2029 13.059 16.8271 12.3187 16.0754C11.5785 15.3238 11.2083 14.4163 11.2083 13.3529C11.2083 12.2896 11.5785 11.3821 12.3187 10.6304C13.059 9.87876 13.9528 9.50293 15 9.50293C16.0472 9.50293 16.941 9.87876 17.6813 10.6304C18.4215 11.3821 18.7917 12.2896 18.7917 13.3529C18.7917 14.4163 18.4215 15.3238 17.6813 16.0754C16.941 16.8271 16.0472 17.2029 15 17.2029ZM15 15.0029C15.4514 15.0029 15.8349 14.8423 16.1505 14.5211C16.4668 14.2007 16.625 13.8113 16.625 13.3529C16.625 12.8946 16.4668 12.5052 16.1505 12.1847C15.8349 11.8635 15.4514 11.7029 15 11.7029C14.5486 11.7029 14.1651 11.8635 13.8495 12.1847C13.5332 12.5052 13.375 12.8946 13.375 13.3529C13.375 13.8113 13.5332 14.2007 13.8495 14.5211C14.1651 14.8423 14.5486 15.0029 15 15.0029ZM6.25 26.0029C5.69772 26.0029 5.25 25.5552 5.25 25.0029V7.20293C5.25 6.65065 5.69772 6.20293 6.25 6.20293H8.5V5.00293C8.5 4.45064 8.94772 4.00293 9.5 4.00293H9.66667C10.219 4.00293 10.6667 4.45064 10.6667 5.00293V6.20293H19.3333V5.00293C19.3333 4.45064 19.781 4.00293 20.3333 4.00293H20.5C21.0523 4.00293 21.5 4.45064 21.5 5.00293V6.20293H23.75C24.3023 6.20293 24.75 6.65065 24.75 7.20293V25.0029C24.75 25.5552 24.3023 26.0029 23.75 26.0029H6.25Z" fill="#42526E"/>
</svg>
