<svg width="26" height="27" viewBox="0 0 26 27" fill="none" xmlns="http://www.w3.org/2000/svg">
<path d="M11.8965 12.5551C12.913 14.3409 14.392 15.8199 16.1778 16.8364L17.1355 15.4952C17.2895 15.2796 17.5172 15.1279 17.7755 15.0688C18.0339 15.0097 18.3049 15.0473 18.5373 15.1746C20.0695 16.0119 21.7616 16.5155 23.5023 16.6522C23.7739 16.6738 24.0275 16.7969 24.2124 16.9971C24.3974 17.1973 24.5 17.4598 24.5 17.7323V22.5662C24.5001 22.8344 24.4006 23.0931 24.2209 23.2922C24.0412 23.4913 23.794 23.6167 23.5272 23.6441C22.953 23.7037 22.3745 23.7329 21.7917 23.7329C12.5183 23.7329 5 16.2146 5 6.94124C5 6.35841 5.02925 5.77991 5.08883 5.20574C5.11619 4.93892 5.24157 4.69172 5.44069 4.51201C5.63981 4.3323 5.89852 4.23285 6.16675 4.23291H11.0006C11.2731 4.23288 11.5356 4.33556 11.7358 4.52048C11.936 4.70541 12.0591 4.95899 12.0807 5.23066C12.2174 6.97135 12.721 8.6634 13.5583 10.1956C13.6856 10.428 13.7232 10.699 13.6641 10.9574C13.605 11.2157 13.4533 11.4434 13.2377 11.5974L11.8965 12.5551ZM9.97683 13.5637C9.42815 12.587 9.80227 11.3877 10.7138 10.7366L11.2227 10.3732C10.6385 9.11235 10.2383 7.77415 10.0342 6.39958H7.1775C7.171 6.57941 7.16775 6.76033 7.16775 6.94124C7.16667 15.0186 13.7143 21.5662 21.7917 21.5662C21.9726 21.5662 22.1535 21.563 22.3333 21.5554V18.6987C20.9588 18.4946 19.6206 18.0944 18.3597 17.5102L17.9963 18.0191C17.3452 18.9306 16.1459 19.3048 15.1693 18.7561L15.1064 18.7203C12.9815 17.511 11.2219 15.7514 10.0126 13.6265L9.97683 13.5637Z" fill="#A8A8A8"/>
</svg>
