<svg width="25" height="24" viewBox="0 0 25 24" fill="none" xmlns="http://www.w3.org/2000/svg">
<g id="Menu Icons">
<path id="Vector" d="M21.4995 1H3.49951C2.39494 1 1.49951 1.89648 1.49951 3.00105C1.49951 3.02939 1.49951 3.04928 1.49951 3.05917V21.0592C1.49951 22.1311 2.36949 23 3.44138 23C3.4696 23 3.4895 23 3.49951 23H21.4995C21.5095 23 21.5294 23 21.5576 23C22.6295 23 23.4995 22.1311 23.4995 21.0592V3.05915C23.4995 3.04925 23.4995 3.02937 23.4995 3.00104C23.4995 1.89648 22.6041 1 21.4995 1ZM14.4995 21.0592H3.49951V13.0591H14.4995V21.0592ZM14.4995 11.0591H3.49951V3.05917L14.4995 3.05915V11.0591ZM21.4995 21.0592H16.4995V3.05917H21.4995V21.0592Z" fill="#4589FF"/>
</g>
</svg>
