<svg width="24" height="25" viewBox="0 0 24 25" fill="none" xmlns="http://www.w3.org/2000/svg">
<path d="M4 22.4829C4 20.3612 4.84285 18.3263 6.34315 16.8261C7.84344 15.3258 9.87827 14.4829 12 14.4829C14.1217 14.4829 16.1566 15.3258 17.6569 16.8261C19.1571 18.3263 20 20.3612 20 22.4829H18C18 20.8916 17.3679 19.3655 16.2426 18.2403C15.1174 17.1151 13.5913 16.4829 12 16.4829C10.4087 16.4829 8.88258 17.1151 7.75736 18.2403C6.63214 19.3655 6 20.8916 6 22.4829H4ZM12 13.4829C8.685 13.4829 6 10.7979 6 7.48291C6 4.16791 8.685 1.48291 12 1.48291C15.315 1.48291 18 4.16791 18 7.48291C18 10.7979 15.315 13.4829 12 13.4829ZM12 11.4829C14.21 11.4829 16 9.69291 16 7.48291C16 5.27291 14.21 3.48291 12 3.48291C9.79 3.48291 8 5.27291 8 7.48291C8 9.69291 9.79 11.4829 12 11.4829Z" fill="#A8A8A8"/>
</svg>
