<svg width="62" height="63" viewBox="0 0 62 63" fill="none" xmlns="http://www.w3.org/2000/svg">
<path d="M10.3333 57.3163C10.3333 51.8351 12.5107 46.5785 16.3865 42.7027C20.2622 38.827 25.5189 36.6496 31 36.6496C36.4811 36.6496 41.7378 38.827 45.6136 42.7027C49.4893 46.5785 51.6667 51.8351 51.6667 57.3163H46.5C46.5 53.2054 44.867 49.2629 41.9602 46.3561C39.0534 43.4493 35.1109 41.8163 31 41.8163C26.8892 41.8163 22.9467 43.4493 20.0399 46.3561C17.133 49.2629 15.5 53.2054 15.5 57.3163H10.3333ZM31 34.0663C22.4363 34.0663 15.5 27.13 15.5 18.5663C15.5 10.0025 22.4363 3.06628 31 3.06628C39.5638 3.06628 46.5 10.0025 46.5 18.5663C46.5 27.13 39.5638 34.0663 31 34.0663ZM31 28.8996C36.7092 28.8996 41.3333 24.2754 41.3333 18.5663C41.3333 12.8571 36.7092 8.23295 31 8.23295C25.2908 8.23295 20.6667 12.8571 20.6667 18.5663C20.6667 24.2754 25.2908 28.8996 31 28.8996Z" fill="white"/>
</svg>
